Coordinates
version=1
nRows=6
nColumns=34
inDegrees=yes

Units are S.I. units (second, meters, Newtons, ...)
Angles are in degrees.

endheader
time	pelvis_tilt	pelvis_list	pelvis_rotation	pelvis_tx	pelvis_ty	pelvis_tz	hip_flexion_r	hip_adduction_r	hip_rotation_r	knee_angle_r	ankle_angle_r	subtalar_angle_r	mtp_angle_r	hip_flexion_l	hip_adduction_l	hip_rotation_l	knee_angle_l	socket_flexion	socket_adduction	socket_rotation	socket_tx	socket_ty	socket_tz	pros_ankle_rx	pros_ankle_ry	pros_ankle_rz	pros_ankle_tx	pros_ankle_ty	pros_ankle_tz	foot_flex	lumbar_extension	lumbar_bending	lumbar_rotation
      0.90416667	      0.03506710	     -6.31583932	      2.17640895	      0.46283689	      1.04499154	      0.36262975	     11.48583957	      9.67700913	     -7.95612772	    -21.68436735	      8.92226972	     14.37896920	     15.17286730	     15.47872440	    -11.55507253	     -1.65066803	    -36.80270011	     26.72296307	     -1.78215650	     -6.01864314	      0.09647071	      0.00058306	      0.01200670	      0.00000000	      0.00000000	      0.00000000	      0.00000000	      0.00000000	      0.00000000	     -1.46513118	     -9.48243533	      2.44922339	    -23.46771964
      0.90833333	      0.01623329	     -6.22945581	      2.11100697	      0.46783714	      1.04611227	      0.36282899	     11.05149798	      9.60829030	     -7.92555081	    -21.43669013	      8.96360305	     14.53357502	     15.28343174	     15.93372427	    -11.42538611	     -1.47642211	    -36.57713567	     26.48897987	     -1.58276429	     -5.77652604	      0.09554579	      0.00018805	      0.01124279	      0.00000000	      0.00000000	      0.00000000	      0.00000000	      0.00000000	      0.00000000	     -1.46931650	     -9.46266668	      2.29444754	    -23.40695647
      0.91250000	     -0.00167263	     -6.16644481	      2.04700049	      0.47284728	      1.04724806	      0.36296022	     10.59508584	      9.55590387	     -7.91712664	    -21.13380077	      8.91096310	     14.72983610	     15.39582251	     16.37379631	    -11.31573800	     -1.30016249	    -36.32855975	     26.22863703	     -1.40310186	     -5.51494760	      0.09457614	     -0.00022968	      0.01042311	      0.00000000	      0.00000000	      0.00000000	      0.00000000	      0.00000000	      0.00000000	     -1.47684118	     -9.42686522	      2.18183045	    -23.31443663
      0.91666667	     -0.00797258	     -6.12172246	      1.99480276	      0.47792442	      1.04841758	      0.36310677	     10.10080426	      9.52292301	     -7.93572722	    -20.77520477	      8.76338370	     14.98739224	     15.56509491	     16.77927113	    -11.22155994	     -1.14481603	    -36.05967265	     25.92868946	     -1.23320178	     -5.24811763	      0.09345849	     -0.00071976	      0.00972726	      0.00000000	      0.00000000	      0.00000000	      0.00000000	      0.00000000	      0.00000000	     -1.47815500	     -9.37917143	      2.10666160	    -23.19348864
      0.92083333	     -0.05107469	     -6.03806442	      1.86864718	      0.48277954	      1.04944920	      0.36331127	      9.74539525	      9.44017485	     -7.90765385	    -20.61689688	      8.75846575	     15.07763304	     15.60979982	     17.20335094	    -11.10071677	     -1.02586234	    -35.75249519	     25.64317813	     -1.04973713	     -5.01482883	      0.09232576	     -0.00117777	      0.00890774	      0.00000000	      0.00000000	      0.00000000	      0.00000000	      0.00000000	      0.00000000	     -1.47562461	     -9.43415698	      2.09073969	    -23.13822778
      0.92500000	     -0.08054267	     -5.98477358	      1.77092808	      0.48763395	      1.05051878	      0.36353554	      9.33923001	      9.40308126	     -7.87096728	    -20.37407161	      8.72962378	     15.21173487	     15.65646585	     17.63322440	    -10.99046814	     -0.88139940	    -35.43463101	     25.34311659	     -0.89124049	     -4.77780897	      0.09125536	     -0.00149278	      0.00833749	      0.00000000	      0.00000000	      0.00000000	      0.00000000	      0.00000000	      0.00000000	     -1.48193866	     -9.43058764	      1.99403857	    -23.05125263
